<svg xmlns="http://www.w3.org/2000/svg" width="512" height="512" viewBox="0 0 512 512"><title>navicons-v5_logos</title><path d="M301.75,166.32c20.5,0,40.37-.16,60.24,0a45.25,45.25,0,0,1,44.68,46.9c-.32,9.15-3.68,17.25-8.77,24.83q-66.51,99-132.89,198.18Q252.49,455,239.94,473.64c-4.81,7.14-11.05,9.7-17.94,7.5s-10.61-7.7-10.61-16.32q0-86.64.09-173.26c0-3.88-.58-5.23-4.93-5.16-18.78.29-37.57.36-56.34,0-25.57-.44-46.09-23.13-43.82-48.53,1-10.92,5-21.26,7.73-31.82,12.28-46.47,24.75-92.89,37.1-139.35,5.83-21.94,23.23-35.62,45.8-35.67q43.2-.09,86.4,0c32.73.1,54.08,29.83,43.64,60.74-7.93,23.5-16,47-23.95,70.43C302.71,163.41,302.33,164.58,301.75,166.32Z" transform="translate(0 0)"/></svg>
