<svg xmlns="http://www.w3.org/2000/svg" width="512" height="512" viewBox="0 0 512 512"><title>navicons-v5_logos</title><path d="M452.63,170c0,46.57.28,93.15-.13,139.72a145.32,145.32,0,0,1-15.67,64c-24.39,49-63.73,81.79-112.91,103.92-14,6.29-28.58,10.78-43.24,15.11-7.14,2.11-7.64,1.79-7.65-5.62,0-18.82,0-37.65,0-56.47,0-13.56-.11-27.11-.14-40.67,0-6.7.9-7.68,7.17-10,20.32-7.64,39.19-17.7,54.4-33.62,15.38-16.09,23.85-35.65,27.28-57.32,4.69-29.59,2.64-59.48,3-89.26.07-5.1-.13-10.21.06-15.31.12-3.28-.71-3.92-3.71-2.37-13,6.71-26.13,13.28-39.19,19.93q-22.56,11.49-45.08,23c-2.69,1.38-4,1.44-4-2.23.1-21.21-.36-42.43.16-63.63.59-24,11.47-42.7,30.73-57.13,18.88-14.14,39.7-24.72,60.56-35.37C384.69,56.2,405,45.49,425.32,34.94c7.63-4,15.37-7.72,22.95-11.78,3.57-1.92,4.5-1.3,4.48,2.79-.14,34-.11,68-.12,101.93Q452.62,148.93,452.63,170Z"/><path d="M149.27,223.07c-.17,19.61-.41,39.22,1.76,58.75,4.93,44.28,28.69,74.5,69,92.31,5.24,2.31,10.54,4.49,15.92,6.46,3.46,1.28,4.91,3.26,4.9,7.1q-.07,51,.23,101.91c0,4.25-1.41,4.8-5.1,3.79-28.25-7.72-55.4-18-80.14-34-35.71-23-64.21-52.65-81.86-91.69a144.24,144.24,0,0,1-12.74-59.83q0-140.43,0-280.87c0-6.45-.09-6.26,5.82-3.19,25.58,13.29,51.3,26.29,76.8,39.73C163,73.65,182.78,82.6,200.6,95c14.87,10.38,29,21.61,35.43,39.54,4.43,12.31,5.29,25.2,5.25,38.14-.05,16.58-.44,33.16-.43,49.74,0,4.5-1.58,3.79-4.44,2.32-27.61-14.2-55.29-28.26-82.84-42.56-3.69-1.92-4.43-1.53-4.37,2.58C149.39,197.56,149.27,210.32,149.27,223.07Z"/></svg>