<svg xmlns="http://www.w3.org/2000/svg" width="512" height="512" viewBox="0 0 512 512"><title>navicons-v5_logos</title><path d="M31,43.28c9.5,0,19,.14,28.5.14q72.8,0,145.61-.06a9.8,9.8,0,0,1,7.65,3.12q58.49,58.72,117.09,117.36a9.54,9.54,0,0,1,2.84,5.86c.16,42.1.12,84.2.11,126.3,0,.82-.1,1.64-.22,3.34L132.67,100.53l-1.07.29v367H31Z" transform="translate(0 0)"/><path d="M178.66,211.8,378.47,410.48l1.13-.29V43.66H479.74V467.71h-4.45q-84.87,0-169.73.06a8.84,8.84,0,0,1-6.88-2.83q-58.81-59-117.7-118a8.32,8.32,0,0,1-2.51-5.12q-.21-63.81-.1-127.62C178.37,213.67,178.5,213.14,178.66,211.8Z" transform="translate(0 0)"/></svg>