<svg xmlns="http://www.w3.org/2000/svg" width="512" height="512" viewBox="0 0 512 512"><path d="M272.23,492.88H240.82a21.51,21.51,0,0,0-3.54-.87c-23.49-1.78-44.85-9.4-64.62-22.26-8.3-5.4-17.58-9.32-26.45-13.82-10.12-5.13-20.76-9.41-30.35-15.39-27.63-17.25-40.49-46.24-34.43-77.05a451.57,451.57,0,0,0,7.82-71,777.88,777.88,0,0,1,15-126.68c8.39-41.39,31.08-73.09,70-90.53C226.36,52,279.75,50.71,332.72,72.66c36.9,15.29,61.81,42.6,72.87,81.2,4.38,15.27,6.5,31.23,9.12,47a737.68,737.68,0,0,1,9,89.88,519.51,519.51,0,0,0,7.71,72.38c4.83,26.17-1.95,49.05-21.54,67.62-10.64,10.09-23.19,17.23-36.73,22.54a189.63,189.63,0,0,0-37.61,19.26,109.2,109.2,0,0,1-38.87,16.27C288.61,490.5,280.38,491.53,272.23,492.88ZM257.07,358.77c16.76.55,35.08-5.81,51.56-18.09,11.95-8.91,16.74-22.09,12.24-36.25q-25.23-79.38-50.76-158.69c-2.32-7.25-7.18-11-13.71-10.91s-11.13,3.68-13.38,10.7q-25.54,79.56-50.93,159.16c-4.2,13.23-.14,26.1,10.67,34.78C217.46,351.29,234.34,357.58,257.07,358.77Zm-44.13,20.48c-7.89-.08-14.18,5.5-14.64,13s5,13.5,13,14.64c6.65.94,8.4,2.72,9.14,9.27.83,7.48,7.29,13.29,14.32,12.88A14.23,14.23,0,0,0,248,414.54C247.8,395.64,231.68,379.43,212.94,379.25Zm87.29,0c-18.85.09-35.42,16.83-35.24,35.62A14.22,14.22,0,0,0,277.66,429c6.57.77,13.93-4.31,14.56-11.34.66-7.4,3.95-10.36,11.14-11.25a13.3,13.3,0,0,0,11.34-14.94C313.77,384.3,307.75,379.21,300.23,379.24Zm-137-125.68a13.56,13.56,0,0,0-14,13.43,13.65,13.65,0,1,0,27.3.72A13.58,13.58,0,0,0,163.23,253.56Zm200.58,13.68a13.66,13.66,0,1,0-27.32.22,13.66,13.66,0,0,0,27.32-.22Z"/><path d="M140.9,62.48c-41.3,29-61.08,69.41-67.15,117.61l-1.35.6c-5.11-6.53-10.72-12.72-15.24-19.64C38.57,132.54,35.63,101.52,43.5,69A154.84,154.84,0,0,1,59.15,29.3c6.26-11.12,15.64-12.52,24.91-3.91,14.65,13.6,31.5,24,49.13,33.23C135.46,59.81,137.78,60.92,140.9,62.48Z"/><path d="M439.44,181.07c-6.32-49.06-25.91-89.55-67-118.38,1.51-.87,2.61-1.56,3.76-2.14,19.7-10,38.28-21.56,54.51-36.71,6.66-6.21,16.8-5.33,21.17,2.37,20.66,36.4,29.18,74.5,14.15,115.27C460.55,156.37,451.6,169.14,439.44,181.07Z"/><path d="M256.91,194.93c5.31,16.64,10.41,32.69,15.54,48.73,7.06,22.07,14,44.18,21.31,66.15,1.63,4.91.5,7.52-3.57,10.3C268.38,335,241.92,334.47,221,318.66c-2.5-1.89-3.2-3.84-2.28-6.7q18.56-57.84,37.08-115.69C255.84,196,256.12,195.84,256.91,194.93Z"/></svg>